Patient4_TMGait_0pt2_03_right_10_EMG.mot
version=1
nRows=13
nColumns=33
inDegrees=no
endheader
time	1LAddLong	2LGlutMax	3LGlutMed	4LIliopsoas	5LSemiMemb	6LBicFemLong	7LRecFem	8LVastMed	9LVastLat	10LGasMed	11LTibAnt	12lTibPost	13LPeroneusLong	14LSol	15LExtDigLong	16LFlexDigLong	17RAddLong	18RGlutMax	19RGlutMed	20RIliopsoas	21RSemiMemb	22RBicFemLong	23RRecFem	24RVastMed	25RVastLat	26RGasMed	27RTibAnt	28RTibPost	29RPeroneusLong	30RSol	31RExtDigLong	32RFlexDigLong
22.105	-0.013733	-0.024719	0.13855	0.010223	-0.096741	0.066223	-0.014954	0.013428	-0.026245	-0.000916	-0.014801	-0.003052	-0.013275	0.029449	0.035706	0.020752	-0.049286	-0.32944	1.192	-0.078125	0.19058	-0.093079	0.055084	0.034485	0.000763	-0.008392	-0.093536	-0.037994	1.0561	0.066223	-0.003052	-0.014496
22.106	-0.016632	0.004425	0.15503	0.015717	-0.19928	0.010681	-0.022583	0.006256	-0.013733	-0.022888	-0.026093	-0.010071	0.001068	0.032196	0.075073	0.006561	-0.027313	-0.35797	0.48599	0.03479	0.30579	-0.15839	0.040131	-0.017242	-0.009613	-0.041351	-0.012207	-0.037689	-0.24612	0.035706	-0.000153	-0.01297
22.107	-0.008545	0.02655	0.15503	0.019073	-0.1474	-0.11398	-0.090942	0.001373	0.018616	-0.03952	-0.036316	-0.013733	-0.024719	0.037842	0.084991	0.011444	-0.021973	-0.41	-0.017548	0.028992	0.1767	-0.088043	0.002441	0.004425	0.038147	-0.096436	0.043488	0.015869	-1.6263	0.058289	-0.00061	-0.003052
22.108	-0.010529	0.044098	0.11292	0.023804	-0.056763	-0.21973	-0.068665	-0.007172	0.019836	-0.029297	-0.041809	-0.046539	-0.015564	0.033569	0.071106	0.017853	-0.025177	-0.36621	-0.25299	0.074005	0.027618	0.000458	0.002594	-0.038147	0.081177	-0.11978	-0.007782	0.008392	-0.16556	-0.081329	0.003052	-0.005035
22.109	-0.003967	0.039063	0.11261	0.014343	0.023804	-0.24307	-0.048981	-0.002289	0.018616	-0.012665	-0.021057	-0.002594	-0.028229	0.018311	0.03067	-0.002441	-0.013733	-0.35584	-0.63263	0.089264	-0.041351	0.060425	0.1236	-0.10864	0.027161	-0.084076	-0.037231	-0.009766	0.12024	-0.080566	-0.000763	-0.003815
22.11	-0.006104	0.028534	0.089874	0.001678	-0.052643	-0.16708	-0.064697	-0.003204	0.03418	0.001526	0.012512	-0.000458	-0.017548	0.036469	0.010376	-0.007477	-0.020447	-0.46493	-0.60883	-0.037231	-0.017853	0.16647	0.12116	-0.13886	-0.041962	-0.019073	-0.13855	-0.020294	0.4451	0.10788	0.000916	-0.005188
22.111	-0.002747	0.040588	0.15274	0.014801	-0.13275	-0.1947	-0.077972	-0.004272	0.031891	0.01236	0.006256	0.01709	-0.022736	0.052643	0.080414	-0.010071	-0.014496	-0.47241	-0.19699	-0.087585	0.020447	0.15625	0.048981	-0.093842	0.02243	0.16876	-0.088806	-0.02533	0.46356	0.1091	0.001526	-0.010376
22.112	0.00824	0.023499	0.14999	0.028992	0.007477	-0.17944	-0.059967	-0.004425	0.02182	0.010376	0.014496	-0.009918	-0.055695	0.075073	0.081787	-0.021057	-0.005646	-0.63538	-0.24475	-0.11429	-0.037384	0.13748	0.061035	-0.099945	0.027771	0.090179	-0.036621	-0.018463	0.47272	0.1001	0.000458	-0.007935
22.113	0.005951	0.031281	0.19302	0.043488	0.10407	-0.091095	-0.042572	-0.00824	0.003662	0.034027	-0.075989	0.008698	-0.10849	0.10803	0.12573	-0.016785	0.002747	-0.63095	-0.49225	-0.011597	-0.096588	0.040894	0.071869	-0.077209	-0.032654	-0.007019	-0.04364	0.00946	0.69504	-0.016632	0.001831	-0.012817
22.114	0.002289	0.03067	0.18677	0.032349	0.10727	-0.098419	-0.002594	0.000153	-0.005341	0.046539	-0.10346	-0.007477	-0.15869	0.10819	0.47104	-0.005798	-0.005188	-0.59433	-0.49576	0.13001	-0.068665	-0.004272	0.006866	-0.03479	-0.071564	0.008545	-0.041809	0.001984	0.59052	-0.071869	0.003204	-0.002594
22.115	0.017548	0.028381	0.15457	-0.004578	0.12299	-0.007935	0.029144	0.00412	-0.018921	0.054779	-0.050964	-0.007935	-0.18036	0.14297	0.29785	-0.010529	0.010986	-0.57648	-0.46921	0.10117	-0.062256	-0.029602	0.015106	0.02594	-0.019989	0.024719	-0.012817	-0.009918	0.26779	0.0354	0.00351	-0.008698
22.116	0.006866	0.040283	0.14023	-0.020142	0.081482	0.15717	0.014191	-0.00351	-0.024567	0.030823	0.02533	-0.028229	-0.12909	0.18967	0.080566	-0.020752	0.024109	-0.59219	-0.21851	-0.021515	-0.10986	-0.045624	0.054779	0.077209	0.074005	0.00412	0.15778	-0.010529	-0.095367	0.085754	0.002441	-0.009766
22.117	0.018463	0.072632	0.16022	-0.018463	0.060577	0.23773	0.012665	0.010986	-0.030365	0.002136	0.2739	-0.013733	-0.035248	0.19974	-0.14252	-0.010834	0.020752	-0.63507	0.04837	0.017395	-0.05188	-0.053101	0.057983	0.045776	0.051422	-0.004578	0.27664	-0.018921	-0.13153	0.067444	0.002747	-0.008698
